<?xml version="1.0" encoding="utf-8" ?><svg xmlns="http://www.w3.org/2000/svg" xmlns:xlink="http://www.w3.org/1999/xlink" width="642" height="635" viewBox="0 0 642 635"><clipPath id="cl_3"><rect width="642" height="635.00006"/></clipPath><g clip-path="url(#cl_3)"><path fill="#010000" transform="scale(0.62029 0.620723)" d="M646.225 142.547C655.661 138.444 664.823 133.653 674.374 129.544C736.083 102.993 803.699 79.5327 871.649 80.2955C911.867 80.7486 960.121 92.0884 988.909 121.722L989.117 122.975L992.322 123.437L993.686 127.148C1016.59 150.771 1027.89 187.272 1026.85 219.595C1025.23 270.486 1006.03 320.192 983.287 365.111C979.644 372.307 970.635 390.982 966.033 396.418C986.594 432.845 994.669 463.251 995.814 505.017C1004.14 507.018 1010.23 509.502 1015.12 517.25C1018.87 523.161 1019.99 530.366 1018.22 537.137C1017.2 541.002 1014.93 545.335 1012.32 548.386C1006.03 552.721 1003.29 554.63 995.485 555.771L991.725 556.35L988.43 555.122C976.291 553.479 970.247 544.026 967.54 533.154C967.39 530.151 967.34 529.387 966.742 526.473C962.236 525.676 937.028 525.989 931.144 525.96C929.166 562.743 922.764 599.156 912.077 634.407C910.075 641.053 898.488 671.525 898.109 674.789L894.935 677.633L896.528 679.762L894.377 682.303C881.33 713.13 864.414 742.169 844.033 768.721C836.295 778.848 827.12 788.732 819.952 798.275L818.442 799.565C812.156 807.501 798.395 819.953 790.471 826.932C732.309 878.162 658.244 912.158 581.278 921.829C559.166 924.608 540.926 923.64 520.734 925.44C520.507 934.432 521.701 967.077 519.027 972.391C517.752 965.856 518.271 933.83 518.292 925.838C509.63 924.73 501.156 925.088 492.463 924.221L490.403 924.314L487.967 921.853L484.656 924.246C475.081 922.768 464.889 922.171 455.581 920.637C435.253 917.286 411.475 912.557 392.017 905.876C337.795 929.557 286.569 951.238 227.558 961.207C222.046 962.139 205.462 964.648 200.316 964.581L201.316 963.233C187.73 963.134 185.197 942.382 158.7 956.177C147.32 936.491 139.915 916.356 137.956 893.557L137.689 890.732C148.579 894.172 158.942 897.068 170.262 898.748C215.98 905.535 275.758 893.154 319.285 877.983L322.345 876.675C278.926 857.477 245.998 828.666 212.48 796.129L211.108 794.637C199.539 781.527 191.826 772.34 181.535 758.233C179.132 756.185 179.194 756.22 176.301 754.967L176.011 751.379C174.841 746.648 162.534 729.839 158.976 723.284C157.509 726.622 152.095 739.581 152.384 742.772C152.003 744.305 151.628 745.249 151.628 746.765L151.05 746.728C148.097 760.756 144.404 774.81 141.763 788.867C135.666 821.313 134.237 851.039 135.467 883.84L132.738 886.334C129.884 832.77 135.667 795.883 148.629 744.58L149.264 741.763C150.439 734.566 155.489 721.16 155.555 716.631C144.155 698.245 132.811 668.549 126.152 648.264C116.239 663.608 102.172 696.886 95.6779 714.038C94.9008 713.434 94.5349 712.881 93.8835 712.117C80.601 706.157 61.5922 687.933 51.0439 677.315C53.8926 673.128 62.8239 654.778 65.6483 649.282L63.2092 648.3C74.5716 625.02 94.9202 596.013 109.826 574.709C107.466 561.894 107.522 540.236 107.174 526.481C96.9466 525.544 77.7927 526.018 67.0267 525.962C68.4825 532.51 68.7082 534.031 67.2363 540.572C60.5701 556.296 48.7804 561.919 32.0624 557.701L28.4399 556.388C17.6466 548.765 12.2056 535.416 17.4644 522.798C20.0938 516.354 25.2575 511.274 31.7432 508.75C38.9576 505.993 46.999 506.872 53.9409 510.002C61.6599 491.844 101.141 452.269 116.304 438.441L119.178 434.784C132.406 374.351 173.688 301.765 215.28 256.525L216.629 255.129C277.14 185.24 371.739 139.271 462.677 127.262C470.166 126.272 515.772 123.932 518.243 122.588L519.939 123.21C524.126 123.773 528.339 123.865 532.556 124.021C557.515 124.952 582.637 127.056 606.952 133.008L610.212 132.412C613.146 133.827 611.674 133.613 614.75 133.295L614.726 133.898C619.96 135.917 639.167 140.504 646.225 142.547ZM865.641 303.792C868.809 307.051 869.897 307.301 874.009 309.214C892.244 318.735 901.508 326.631 918.211 337.905C923.064 334.83 925.042 335.096 927.941 330.447C934.936 316.896 939.561 306.061 943.832 291.385C949.252 265.066 953.089 232.707 943.383 207.28C907.434 113.094 780.374 145.099 711.703 168.218C743.328 185.11 769.234 200.841 796.362 224.718C805.367 232.646 816.465 245.031 825.482 251.734L827.076 253.679C839.888 269.308 854.576 286.997 865.641 303.792ZM897.129 356.805C899.944 362.85 902.736 369.094 905.904 374.945C907.655 372.463 910.531 366.638 912.079 363.724C915.274 357.877 918.331 351.956 921.25 345.965L914.024 341.506L913.991 340.451C898.928 328.349 888.059 321.065 871.312 311.667C875.916 319.128 893.749 353.747 897.129 356.805ZM109.826 574.709C94.9202 596.013 74.5716 625.02 63.2092 648.3L65.6483 649.282C62.8239 654.778 53.8926 673.128 51.0439 677.315C61.5922 687.933 80.601 706.157 93.8835 712.117C94.5349 712.881 94.9008 713.434 95.6779 714.038C102.172 696.886 116.239 663.608 126.152 648.264C132.811 668.549 144.155 698.245 155.555 716.631C192.663 595.391 270.158 471.638 350.938 374.921C365.21 358.027 379.839 341.438 394.816 325.166C404.055 315.216 415.308 304.097 423.792 293.821C425.806 291.627 426.098 291.048 427.61 288.431C432.983 286.844 468.745 251.542 475.149 245.645C517.407 206.18 561.385 168.598 606.952 133.008C582.637 127.056 557.515 124.952 532.556 124.021C528.339 123.865 524.126 123.773 519.939 123.21L518.243 122.588C515.772 123.932 470.166 126.272 462.677 127.262C371.739 139.271 277.14 185.24 216.629 255.129L215.28 256.525C173.688 301.765 132.406 374.351 119.178 434.784L116.304 438.441C101.141 452.269 61.6599 491.844 53.9409 510.002C46.999 506.872 38.9576 505.993 31.7432 508.75C25.2575 511.274 20.0938 516.354 17.4644 522.798C12.2056 535.416 17.6466 548.765 28.4399 556.388L32.0624 557.701C48.7804 561.919 60.5701 556.296 67.2363 540.572C68.7082 534.031 68.4825 532.51 67.0267 525.962C77.7927 526.018 96.9466 525.544 107.174 526.481C107.522 540.236 107.466 561.894 109.826 574.709ZM993.296 504.708C991.969 497.585 991.787 486.351 990.684 478.375C987.185 453.061 978.207 423.179 964.201 401.669C952.395 422.854 941.133 440.081 927.052 459.998C929.572 473.584 930.286 487.164 930.794 500.932C931.004 506.614 930.699 518.499 931.454 523.607L967.725 523.49C973.901 510.211 979.512 507.268 993.296 504.708Z"/><path fill="#B7B3B2" fill-opacity="0.98823529" transform="scale(0.62029 0.620723)" d="M914.024 341.506L921.25 345.965C918.331 351.956 915.274 357.877 912.079 363.724C910.531 366.638 907.655 372.463 905.904 374.945C902.736 369.094 899.944 362.85 897.129 356.805C903.676 351.57 908.461 347.755 914.024 341.506Z"/><path fill="#289DA0" transform="scale(0.62029 0.620723)" d="M874.009 309.214C892.244 318.735 901.508 326.631 918.211 337.905C916.588 338.976 915.759 339.59 913.991 340.451C898.928 328.349 888.059 321.065 871.312 311.667C871.952 309.641 871.409 310.599 874.009 309.214Z"/><path fill="#010000" fill-opacity="0.95686275" transform="scale(0.62029 0.620723)" d="M825.482 251.734C830.218 246.214 856.318 221.003 861.899 217.173L862.354 217.423C854.272 227.463 837.112 242.967 827.076 253.679L825.482 251.734Z"/><path fill="#010000" transform="scale(0.62029 0.620723)" d="M937.167 322.961L934.412 330.992C932.319 336.941 930.368 342.788 926.538 347.895C932.912 352.618 938.674 358.916 944.03 364.782C952.194 374.793 957.807 382.421 965.341 392.971L966.261 393.177L966.033 396.418C986.594 432.845 994.669 463.251 995.814 505.017C1004.14 507.018 1010.23 509.502 1015.12 517.25C1018.87 523.161 1019.99 530.366 1018.22 537.137C1017.2 541.002 1014.93 545.335 1012.32 548.386C1006.03 552.721 1003.29 554.63 995.485 555.771L991.725 556.35L988.43 555.122C976.291 553.479 970.247 544.026 967.54 533.154C967.39 530.151 967.34 529.387 966.742 526.473C962.236 525.676 937.028 525.989 931.144 525.96C929.166 562.743 922.764 599.156 912.077 634.407C910.075 641.053 898.488 671.525 898.109 674.789L894.935 677.633L896.528 679.762L894.377 682.303C881.33 713.13 864.414 742.169 844.033 768.721C836.295 778.848 827.12 788.732 819.952 798.275L818.442 799.565C812.156 807.501 798.395 819.953 790.471 826.932C732.309 878.162 658.244 912.158 581.278 921.829C559.166 924.608 540.926 923.64 520.734 925.44C520.507 934.432 521.701 967.077 519.027 972.391C517.752 965.856 518.271 933.83 518.292 925.838C509.63 924.73 501.156 925.088 492.463 924.221L490.403 924.314L487.967 921.853L484.656 924.246C475.081 922.768 464.889 922.171 455.581 920.637C435.253 917.286 411.475 912.557 392.017 905.876C337.795 929.557 286.569 951.238 227.558 961.207C222.046 962.139 205.462 964.648 200.316 964.581L201.316 963.233C187.73 963.134 185.197 942.382 158.7 956.177C147.32 936.491 139.915 916.356 137.956 893.557L137.689 890.732C148.579 894.172 158.942 897.068 170.262 898.748C215.98 905.535 275.758 893.154 319.285 877.983L322.345 876.675C339.254 869.76 356.285 863.701 373.232 856.443C402.936 843.476 431.98 829.047 460.258 813.208C464.734 810.706 479.376 803.297 482.209 800.81C481.054 799.812 474.868 800.005 472.747 799.928C477.999 799.415 486.96 799.268 490.98 796.104L490.705 794.906C502.572 790.896 524.405 774.957 535.403 767.419C540.423 746.144 555.289 736.601 576.756 741.815C579.05 738.664 600.56 724.452 605.994 720.396C617.274 712.057 628.353 703.449 639.219 694.58C670.45 669.006 700.602 642.141 729.595 614.056C756.458 587.605 782.08 559.92 806.38 531.095C812.051 524.322 817.5 517.367 822.717 510.237C824.906 507.191 830.143 498.173 832.103 496.511C837.53 495.216 859.81 461.069 864.594 453.954C874.084 439.488 883.082 424.707 891.577 409.635C895.001 403.693 904.356 386.657 908.392 381.755C906.318 380.326 906.68 379.333 903.86 378.888L905.904 374.945C907.655 372.463 910.531 366.638 912.079 363.724C915.274 357.877 918.331 351.956 921.25 345.965L914.024 341.506L913.991 340.451C915.759 339.59 916.588 338.976 918.211 337.905C923.064 334.83 925.042 335.096 927.941 330.447C929.367 330.948 928.895 330.923 930.198 330.94C931.597 330.961 932.932 329.083 933.943 328.12C934.908 326.417 936.108 324.627 937.167 322.961ZM927.052 459.998C929.572 473.584 930.286 487.164 930.794 500.932C931.004 506.614 930.699 518.499 931.454 523.607L967.725 523.49C973.901 510.211 979.512 507.268 993.296 504.708C991.969 497.585 991.787 486.351 990.684 478.375C987.185 453.061 978.207 423.179 964.201 401.669C952.395 422.854 941.133 440.081 927.052 459.998Z"/><path fill="#010000" transform="scale(0.62029 0.620723)" d="M894.377 682.303C881.33 713.13 864.414 742.169 844.033 768.721C836.295 778.848 827.12 788.732 819.952 798.275L818.442 799.565C812.156 807.501 798.395 819.953 790.471 826.932C732.309 878.162 658.244 912.158 581.278 921.829C559.166 924.608 540.926 923.64 520.734 925.44C520.507 934.432 521.701 967.077 519.027 972.391C517.752 965.856 518.271 933.83 518.292 925.838C509.63 924.73 501.156 925.088 492.463 924.221C543.451 889.074 591.338 849.628 635.6 806.312C643.366 798.72 659.131 783.944 665.565 776.148C667.551 772.873 668.27 772.483 671.472 770.451C683.194 768.021 702.046 762.807 713.362 759.189C713.924 760.369 714.842 762.032 715.087 763.233C718.474 764.106 720.995 768.111 723.966 769.497C746.425 779.964 763.182 766.313 763.466 743.914C803.362 731.123 859.028 704.525 894.377 682.303Z"/><path fill="#17868F" transform="scale(0.62029 0.620723)" d="M713.362 759.189C713.924 760.369 714.842 762.032 715.087 763.233C701.727 767.128 678.92 773.926 665.565 776.148C667.551 772.873 668.27 772.483 671.472 770.451C683.194 768.021 702.046 762.807 713.362 759.189Z"/><path fill="#EC633A" transform="scale(0.62029 0.620723)" d="M937.167 322.961L934.412 330.992C932.319 336.941 930.368 342.788 926.538 347.895C932.912 352.618 938.674 358.916 944.03 364.782C952.194 374.793 957.807 382.421 965.341 392.971L963.334 394.723L960.285 394.038L963.269 399.187C896.017 518.358 788.183 632.748 683.511 719.325C663.717 735.563 643.528 751.311 622.962 766.555C614.297 772.988 601.037 781.514 593.607 787.856C586.052 797.386 581.867 797.767 573.01 803.589C571.428 803.672 569.674 803.453 568.07 803.326L568.331 802.595C570.372 801.826 570.525 801.018 571.709 799.109C583.874 794.439 588.164 790.28 593.118 778.617C596.507 762.578 590.303 750.581 574.873 744.745L576.756 741.815C579.05 738.664 600.56 724.452 605.994 720.396C617.274 712.057 628.353 703.449 639.219 694.58C670.45 669.006 700.602 642.141 729.595 614.056C756.458 587.605 782.08 559.92 806.38 531.095C812.051 524.322 817.5 517.367 822.717 510.237C824.906 507.191 830.143 498.173 832.103 496.511C837.53 495.216 859.81 461.069 864.594 453.954C874.084 439.488 883.082 424.707 891.577 409.635C895.001 403.693 904.356 386.657 908.392 381.755C906.318 380.326 906.68 379.333 903.86 378.888L905.904 374.945C907.655 372.463 910.531 366.638 912.079 363.724C915.274 357.877 918.331 351.956 921.25 345.965L914.024 341.506L913.991 340.451C915.759 339.59 916.588 338.976 918.211 337.905C923.064 334.83 925.042 335.096 927.941 330.447C929.367 330.948 928.895 330.923 930.198 330.94C931.597 330.961 932.932 329.083 933.943 328.12C934.908 326.417 936.108 324.627 937.167 322.961Z"/><path fill="#1D1515" transform="scale(0.62029 0.620723)" d="M832.103 496.511C837.53 495.216 859.81 461.069 864.594 453.954L866.545 456.854C808.411 542.346 734.284 619.652 655.068 685.724C636.416 701.282 601.377 729.82 580.427 742.535C599.083 756.004 600.318 767.379 593.694 787.035C593.664 787.309 593.635 787.582 593.607 787.856C586.052 797.386 581.867 797.767 573.01 803.589C571.428 803.672 569.674 803.453 568.07 803.326L568.331 802.595C570.372 801.826 570.525 801.018 571.709 799.109C583.874 794.439 588.164 790.28 593.118 778.617C596.507 762.578 590.303 750.581 574.873 744.745L576.756 741.815C579.05 738.664 600.56 724.452 605.994 720.396C617.274 712.057 628.353 703.449 639.219 694.58C670.45 669.006 700.602 642.141 729.595 614.056C756.458 587.605 782.08 559.92 806.38 531.095C812.051 524.322 817.5 517.367 822.717 510.237C824.906 507.191 830.143 498.173 832.103 496.511Z"/><path fill="#A24123" transform="scale(0.62029 0.620723)" d="M926.538 347.895C932.912 352.618 938.674 358.916 944.03 364.782C952.194 374.793 957.807 382.421 965.341 392.971L963.334 394.723L960.285 394.038C960.003 393.793 958.262 391.413 957.912 390.948C953.756 392.663 949.871 393.069 945.432 393.812C929.609 384.746 928.416 380.01 919.475 366.324C921.798 361.468 923.855 356.516 925.964 351.565L926.538 347.895Z"/><path fill="#17868F" transform="scale(0.62029 0.620723)" d="M926.538 347.895C932.912 352.618 938.674 358.916 944.03 364.782C952.194 374.793 957.807 382.421 965.341 392.971L963.334 394.723L960.285 394.038C960.003 393.793 958.262 391.413 957.912 390.948C949.139 377.888 937.359 362.27 925.964 351.565L926.538 347.895Z"/><path fill="#010000" transform="scale(0.62029 0.620723)" d="M937.167 322.961L934.412 330.992C932.319 336.941 930.368 342.788 926.538 347.895L925.964 351.565C923.855 356.516 921.798 361.468 919.475 366.324C905.059 398.015 886.207 428.164 866.545 456.854L864.594 453.954C874.084 439.488 883.082 424.707 891.577 409.635C895.001 403.693 904.356 386.657 908.392 381.755C906.318 380.326 906.68 379.333 903.86 378.888L905.904 374.945C907.655 372.463 910.531 366.638 912.079 363.724C915.274 357.877 918.331 351.956 921.25 345.965L914.024 341.506L913.991 340.451C915.759 339.59 916.588 338.976 918.211 337.905C923.064 334.83 925.042 335.096 927.941 330.447C929.367 330.948 928.895 330.923 930.198 330.94C931.597 330.961 932.932 329.083 933.943 328.12C934.908 326.417 936.108 324.627 937.167 322.961Z"/><path fill="#485899" transform="scale(0.62029 0.620723)" d="M927.941 330.447C929.367 330.948 928.895 330.923 930.198 330.94C931.597 330.961 932.932 329.083 933.943 328.12C927.994 339.737 923.768 351.048 918.698 363.026L912.079 363.724C915.274 357.877 918.331 351.956 921.25 345.965L914.024 341.506L913.991 340.451C915.759 339.59 916.588 338.976 918.211 337.905C923.064 334.83 925.042 335.096 927.941 330.447Z"/><path fill="#4752C7" transform="scale(0.62029 0.620723)" d="M912.079 363.724L918.698 363.026C916.083 368.54 912.175 377.33 908.392 381.755C906.318 380.326 906.68 379.333 903.86 378.888L905.904 374.945C907.655 372.463 910.531 366.638 912.079 363.724Z"/><path fill="#EC633A" transform="scale(0.62029 0.620723)" d="M535.403 767.419C540.423 746.144 555.289 736.601 576.756 741.815L574.873 744.745C590.303 750.581 596.507 762.578 593.118 778.617C588.164 790.28 583.874 794.439 571.709 799.109C570.525 801.018 570.372 801.826 568.331 802.595L568.07 803.326C561.846 807.356 555.645 811.421 549.469 815.523L547.204 817.146C518.438 835.226 489.162 852.481 459.41 868.889C436.694 881.263 414.098 892.219 390.962 903.662C347.083 923.374 307.53 939.839 260.411 951.678C247.918 954.755 235.314 957.36 222.625 959.482C217.664 960.345 205.626 961.986 201.316 963.233C187.73 963.134 185.197 942.382 158.7 956.177C147.32 936.491 139.915 916.356 137.956 893.557L137.689 890.732C148.579 894.172 158.942 897.068 170.262 898.748C215.98 905.535 275.758 893.154 319.285 877.983L322.345 876.675C339.254 869.76 356.285 863.701 373.232 856.443C402.936 843.476 431.98 829.047 460.258 813.208C464.734 810.706 479.376 803.297 482.209 800.81C481.054 799.812 474.868 800.005 472.747 799.928C477.999 799.415 486.96 799.268 490.98 796.104L490.705 794.906C502.572 790.896 524.405 774.957 535.403 767.419Z"/><path fill="#EC633A" transform="scale(0.62029 0.620723)" d="M539.106 766.695L539.379 765.891L539.848 764.557C545.54 748.052 557.815 741.307 574.873 744.745C590.303 750.581 596.507 762.578 593.118 778.617C588.164 790.28 583.874 794.439 571.709 799.109C570.525 801.018 570.372 801.826 568.331 802.595L568.07 803.326C561.846 807.356 555.645 811.421 549.469 815.523L547.204 817.146C528.295 801.753 530.315 794.98 534.06 772.681L536.212 771.865C537.313 768.961 537.339 769.026 539.106 766.695Z"/><path fill="#A24123" transform="scale(0.62029 0.620723)" d="M536.212 771.865C537.313 768.961 537.339 769.026 539.106 766.695C538.99 773.87 539.069 776.821 541.831 783.795C548.376 795.716 558.499 799.483 571.709 799.109C570.525 801.018 570.372 801.826 568.331 802.595L568.07 803.326C561.846 807.356 555.645 811.421 549.469 815.523L547.204 817.146C528.295 801.753 530.315 794.98 534.06 772.681L536.212 771.865Z"/><path fill="#191516" transform="scale(0.62029 0.620723)" d="M536.212 771.865C537.313 768.961 537.339 769.026 539.106 766.695C538.99 773.87 539.069 776.821 541.831 783.795C548.376 795.716 558.499 799.483 571.709 799.109C570.525 801.018 570.372 801.826 568.331 802.595C548.966 801.532 538.066 790.899 536.212 771.865Z"/><path fill="#D95B35" transform="scale(0.62029 0.620723)" d="M541.831 783.795C547.742 785.219 557.559 790.896 565.036 792.795C581.833 797.066 583.89 772.32 593.118 778.617C588.164 790.28 583.874 794.439 571.709 799.109C558.499 799.483 548.376 795.716 541.831 783.795Z"/><path fill="#191516" transform="scale(0.62029 0.620723)" d="M535.403 767.419C540.423 746.144 555.289 736.601 576.756 741.815L574.873 744.745C557.815 741.307 545.54 748.052 539.848 764.557L539.379 765.891L539.106 766.695C537.339 769.026 537.313 768.961 536.212 771.865L534.06 772.681C484.229 806.764 422.188 838.922 366.962 862.874C355.798 867.717 333.925 876.61 322.251 879.555L319.285 877.983L322.345 876.675C339.254 869.76 356.285 863.701 373.232 856.443C402.936 843.476 431.98 829.047 460.258 813.208C464.734 810.706 479.376 803.297 482.209 800.81C481.054 799.812 474.868 800.005 472.747 799.928C477.999 799.415 486.96 799.268 490.98 796.104L490.705 794.906C502.572 790.896 524.405 774.957 535.403 767.419Z"/><path fill="#010000" transform="scale(0.62029 0.620723)" d="M319.285 877.983L322.251 879.555C266.047 899.59 195.68 913.198 137.956 893.557L137.689 890.732C148.579 894.172 158.942 897.068 170.262 898.748C215.98 905.535 275.758 893.154 319.285 877.983Z"/><path fill="#1D1515" transform="scale(0.62029 0.620723)" d="M713.362 759.189C713.571 754.206 711.34 747.288 712.81 742.177C719.627 718.501 748.587 716.629 760.832 736.949C762.097 739.049 760.949 737.893 763.298 739.396L762.411 740.775L763.466 743.914C763.182 766.313 746.425 779.964 723.966 769.497C720.995 768.111 718.474 764.106 715.087 763.233C714.842 762.032 713.924 760.369 713.362 759.189Z"/><path fill="#289DA0" transform="scale(0.62029 0.620723)" d="M734.437 726.948C746.088 725.123 757.017 733.079 758.865 744.73C760.711 756.381 752.779 767.329 741.134 769.198C729.458 771.072 718.477 763.111 716.626 751.429C714.774 739.746 722.754 728.777 734.437 726.948Z"/><path fill="#4752C7" transform="scale(0.62029 0.620723)" d="M798.604 617.446C767.296 665.1 711.621 730.597 671.472 770.451C668.27 772.483 667.551 772.873 665.565 776.148C659.131 783.944 643.366 798.72 635.6 806.312C591.338 849.628 543.451 889.074 492.463 924.221L490.403 924.314L487.967 921.853C498.989 913.824 509.647 906.7 520.894 898.247C557.941 870.553 593.226 840.578 626.548 808.496C636.151 799.205 648.262 787.974 656.89 778.159C659.39 776.261 659.576 775.75 661.227 773.196C667.851 769.295 680.094 755.423 685.675 749.47C707.421 726.371 728.147 702.332 747.794 677.422C765.131 655.763 777.596 636.085 798.604 617.446Z"/><path fill="#17868F" transform="scale(0.62029 0.620723)" d="M763.298 739.396C809.504 723.937 852.637 701.475 894.935 677.633L896.528 679.762L894.377 682.303C859.028 704.525 803.362 731.123 763.466 743.914L762.411 740.775L763.298 739.396Z"/><path fill="#1D1515" transform="scale(0.62029 0.620723)" d="M549.469 815.523L549.932 819.379C513.302 842.655 475.729 864.411 437.31 884.594C428.1 889.445 400.424 905 390.962 903.662C414.098 892.219 436.694 881.263 459.41 868.889C489.162 852.481 518.438 835.226 547.204 817.146L549.469 815.523Z"/><path fill="#289DA0" transform="scale(0.62029 0.620723)" d="M965.341 392.971L966.261 393.177L966.033 396.418C986.594 432.845 994.669 463.251 995.814 505.017L993.296 504.708C991.969 497.585 991.787 486.351 990.684 478.375C987.185 453.061 978.207 423.179 964.201 401.669L963.269 399.187L960.285 394.038L963.334 394.723L965.341 392.971Z"/><path fill="#289DA0" transform="scale(0.62029 0.620723)" d="M656.89 778.159C647.594 780.946 606.994 789.124 598.364 787.92L598.493 787.151C607.663 782.855 621.421 781.352 631.69 779.464C641.602 777.7 651.454 775.608 661.227 773.196C659.576 775.75 659.39 776.261 656.89 778.159Z"/><path fill="#010000" transform="scale(0.62029 0.620723)" d="M568.07 803.326C569.674 803.453 571.428 803.672 573.01 803.589C569.544 806.914 554.568 817.325 549.932 819.379L549.469 815.523C555.645 811.421 561.846 807.356 568.07 803.326Z"/><path fill="#289DA0" transform="scale(0.62029 0.620723)" d="M989.333 508.244C1001.44 505.996 1013.11 513.877 1015.55 525.95C1018 538.022 1010.31 549.823 998.277 552.46C990.323 554.205 982.044 551.523 976.623 545.445C971.199 539.367 969.473 530.838 972.107 523.128C974.741 515.42 981.325 509.731 989.333 508.244Z"/><path fill="#010000" transform="scale(0.62029 0.620723)" d="M518.243 122.588L519.939 123.21C524.126 123.773 528.339 123.865 532.556 124.021C557.515 124.952 582.637 127.056 606.952 133.008C561.385 168.598 517.407 206.18 475.149 245.645C468.745 251.542 432.983 286.844 427.61 288.431C426.098 291.048 425.806 291.627 423.792 293.821C415.308 304.097 404.055 315.216 394.816 325.166C379.839 341.438 365.21 358.027 350.938 374.921C270.158 471.638 192.663 595.391 155.555 716.631C144.155 698.245 132.811 668.549 126.152 648.264C116.239 663.608 102.172 696.886 95.6779 714.038C94.9008 713.434 94.5349 712.881 93.8835 712.117C80.601 706.157 61.5922 687.933 51.0439 677.315C53.8926 673.128 62.8239 654.778 65.6483 649.282L63.2092 648.3C74.5716 625.02 94.9202 596.013 109.826 574.709C107.466 561.894 107.522 540.236 107.174 526.481C96.9466 525.544 77.7927 526.018 67.0267 525.962C68.4825 532.51 68.7082 534.031 67.2363 540.572C60.5701 556.296 48.7804 561.919 32.0624 557.701L28.4399 556.388C17.6466 548.765 12.2056 535.416 17.4644 522.798C20.0938 516.354 25.2575 511.274 31.7432 508.75C38.9576 505.993 46.999 506.872 53.9409 510.002C61.6599 491.844 101.141 452.269 116.304 438.441L119.178 434.784C132.406 374.351 173.688 301.765 215.28 256.525L216.629 255.129C277.14 185.24 371.739 139.271 462.677 127.262C470.166 126.272 515.772 123.932 518.243 122.588ZM117.411 441.989C90.8995 466.562 77.0559 482.054 56.9379 511.755C61.5648 515.439 63.5461 518.829 66.3561 523.785C79.9836 524.075 93.6159 524.23 107.247 524.251C109.215 491.109 110.589 475.316 117.411 441.989ZM45.5223 556.25C53.8539 554.805 60.7684 548.996 63.6316 541.036C66.4931 533.076 64.8616 524.193 59.3578 517.771C53.8539 511.348 45.3256 508.378 37.0246 509.99C24.3693 512.45 16.0538 524.644 18.3834 537.327C20.7129 550.01 32.8202 558.452 45.5223 556.25Z"/><path fill="#010000" transform="scale(0.62029 0.620723)" d="M518.243 122.588L519.939 123.21C524.126 123.773 528.339 123.865 532.556 124.021C557.515 124.952 582.637 127.056 606.952 133.008C561.385 168.598 517.407 206.18 475.149 245.645C468.745 251.542 432.983 286.844 427.61 288.431C426.098 291.048 425.806 291.627 423.792 293.821C380.034 305.552 337.155 320.344 295.47 338.091C287.769 341.356 271.534 347.916 265.173 352.009C266.611 361.972 265.608 368.177 258.168 375.048C249.462 382.229 234.685 381.561 228.799 370.923L227.829 370.854L225.451 366.185C198.78 379.404 173.167 394.662 148.842 411.82C139.188 418.714 127.75 429.006 119.178 434.784C132.406 374.351 173.688 301.765 215.28 256.525L216.629 255.129C277.14 185.24 371.739 139.271 462.677 127.262C470.166 126.272 515.772 123.932 518.243 122.588Z"/><path fill="#4752C7" transform="scale(0.62029 0.620723)" d="M249.559 338.568C256.988 340.929 257.821 341.759 262.78 347.656C263.617 349.098 264.497 350.493 265.173 352.009C266.611 361.972 265.608 368.177 258.168 375.048C249.462 382.229 234.685 381.561 228.799 370.923L227.829 370.854L225.451 366.185C223.87 358.633 223.737 354.737 226.77 347.713C229.843 346.286 229.894 346.315 233.262 345.713C237.591 341.85 243.559 340.395 249.18 341.835L249.559 338.568Z"/><path fill="#1D1515" transform="scale(0.62029 0.620723)" d="M249.559 338.568C256.988 340.929 257.821 341.759 262.78 347.656C263.617 349.098 264.497 350.493 265.173 352.009C266.611 361.972 265.608 368.177 258.168 375.048C259.005 372.104 259.334 370.644 259.819 367.622C262.627 362.904 263.048 357.139 260.954 352.064C258.861 346.989 254.497 343.198 249.18 341.835L249.559 338.568Z"/><path fill="#191516" transform="scale(0.62029 0.620723)" d="M259.819 367.622C259.334 370.644 259.005 372.104 258.168 375.048C249.462 382.229 234.685 381.561 228.799 370.923L232.761 371.239C236.588 374.935 241.892 376.678 247.165 375.974C252.437 375.269 257.098 372.192 259.819 367.622Z"/><path fill="#1D1515" transform="scale(0.62029 0.620723)" d="M226.77 347.713C229.843 346.286 229.894 346.315 233.262 345.713C229.649 348.939 227.542 353.523 227.447 358.367C227.352 363.21 229.278 367.874 232.761 371.239L228.799 370.923L227.829 370.854L225.451 366.185C223.87 358.633 223.737 354.737 226.77 347.713Z"/><path fill="#17868F" transform="scale(0.62029 0.620723)" d="M262.78 347.656C319.51 322.782 367.193 304.279 427.61 288.431C426.098 291.048 425.806 291.627 423.792 293.821C380.034 305.552 337.155 320.344 295.47 338.091C287.769 341.356 271.534 347.916 265.173 352.009C264.497 350.493 263.617 349.098 262.78 347.656Z"/><path fill="#191516" transform="scale(0.62029 0.620723)" d="M226.77 347.713C232.836 338.897 239.28 337.51 249.559 338.568L249.18 341.835C243.559 340.395 237.591 341.85 233.262 345.713C229.894 346.315 229.843 346.286 226.77 347.713Z"/><path fill="#EC633A" transform="scale(0.62029 0.620723)" d="M109.941 579.36C113.655 602.088 117.922 623.385 125.256 645.241C111.52 669.73 103.868 685.611 93.8835 712.117C80.601 706.157 61.5922 687.933 51.0439 677.315C53.8926 673.128 62.8239 654.778 65.6483 649.282C77.783 625.678 94.6815 601.077 109.941 579.36Z"/><path fill="#4752C7" transform="scale(0.62029 0.620723)" d="M225.451 366.185L227.829 370.854C194.043 384.801 148.149 417.124 119.818 440.013L116.304 438.441L119.178 434.784C127.75 429.006 139.188 418.714 148.842 411.82C173.167 394.662 198.78 379.404 225.451 366.185Z"/><path fill="#4752C7" transform="scale(0.62029 0.620723)" d="M116.304 438.441L119.818 440.013L117.411 441.989C90.8995 466.562 77.0559 482.054 56.9379 511.755L53.9409 510.002C61.6599 491.844 101.141 452.269 116.304 438.441Z"/><path fill="#EC633A" transform="scale(0.62029 0.620723)" d="M646.225 142.547C655.661 138.444 664.823 133.653 674.374 129.544C736.083 102.993 803.699 79.5327 871.649 80.2955C911.867 80.7486 960.121 92.0884 988.909 121.722L989.117 122.975L992.322 123.437L993.686 127.148C1016.59 150.771 1027.89 187.272 1026.85 219.595C1025.23 270.486 1006.03 320.192 983.287 365.111C979.644 372.307 970.635 390.982 966.033 396.418L966.261 393.177L965.341 392.971C957.807 382.421 952.194 374.793 944.03 364.782C938.674 358.916 932.912 352.618 926.538 347.895C930.368 342.788 932.319 336.941 934.412 330.992L937.167 322.961C936.108 324.627 934.908 326.417 933.943 328.12C932.932 329.083 931.597 330.961 930.198 330.94C928.895 330.923 929.367 330.948 927.941 330.447C934.936 316.896 939.561 306.061 943.832 291.385C949.252 265.066 953.089 232.707 943.383 207.28C907.434 113.094 780.374 145.099 711.703 168.218C743.328 185.11 769.234 200.841 796.362 224.718C805.367 232.646 816.465 245.031 825.482 251.734L827.076 253.679C839.888 269.308 854.576 286.997 865.641 303.792C775.233 256.951 649.709 250.049 550.654 263.156C510.536 268.465 478.175 276.11 439.503 285.265C453.09 271.642 469.795 257.296 484.064 244.123C513.038 217.371 542.716 190.93 573.181 165.899C580.962 159.505 606.929 137.511 614.726 133.898C619.96 135.917 639.167 140.504 646.225 142.547Z"/><path fill="#010000" transform="scale(0.62029 0.620723)" d="M646.225 142.547C655.661 138.444 664.823 133.653 674.374 129.544C736.083 102.993 803.699 79.5327 871.649 80.2955C911.867 80.7486 960.121 92.0884 988.909 121.722L989.117 122.975L988.989 125.381C905.508 50.3092 783.234 89.2342 691.046 125.308C677.172 130.738 663.849 138.041 650.138 143.59C672.968 150.616 688.473 156.557 710.109 166.473C816.802 125.827 973.003 116.898 949.376 279.111C947.573 284.376 947.082 286.842 943.832 291.385C949.252 265.066 953.089 232.707 943.383 207.28C907.434 113.094 780.374 145.099 711.703 168.218C743.328 185.11 769.234 200.841 796.362 224.718C805.367 232.646 816.465 245.031 825.482 251.734L827.076 253.679C839.888 269.308 854.576 286.997 865.641 303.792C775.233 256.951 649.709 250.049 550.654 263.156C510.536 268.465 478.175 276.11 439.503 285.265C453.09 271.642 469.795 257.296 484.064 244.123C513.038 217.371 542.716 190.93 573.181 165.899C580.962 159.505 606.929 137.511 614.726 133.898C619.96 135.917 639.167 140.504 646.225 142.547Z"/><path fill="#EC633A" transform="scale(0.62029 0.620723)" d="M989.117 122.975L992.322 123.437L993.686 127.148C1016.59 150.771 1027.89 187.272 1026.85 219.595C1025.23 270.486 1006.03 320.192 983.287 365.111C979.644 372.307 970.635 390.982 966.033 396.418L966.261 393.177L965.341 392.971C957.807 382.421 952.194 374.793 944.03 364.782C938.674 358.916 932.912 352.618 926.538 347.895C930.368 342.788 932.319 336.941 934.412 330.992L937.167 322.961C936.108 324.627 934.908 326.417 933.943 328.12C932.932 329.083 931.597 330.961 930.198 330.94C928.895 330.923 929.367 330.948 927.941 330.447C934.936 316.896 939.561 306.061 943.832 291.385C947.082 286.842 947.573 284.376 949.376 279.111C953.25 274.688 957.87 260.507 960.171 254.376C973.706 218.297 989.986 164.118 988.989 125.381L989.117 122.975Z"/><path fill="#4752C7" transform="scale(0.62029 0.620723)" d="M989.117 122.975L992.322 123.437L993.686 127.148L993.679 129.818C989.71 205.727 963.551 255.14 937.167 322.961C936.108 324.627 934.908 326.417 933.943 328.12C932.932 329.083 931.597 330.961 930.198 330.94C928.895 330.923 929.367 330.948 927.941 330.447C934.936 316.896 939.561 306.061 943.832 291.385C947.082 286.842 947.573 284.376 949.376 279.111C953.25 274.688 957.87 260.507 960.171 254.376C973.706 218.297 989.986 164.118 988.989 125.381L989.117 122.975Z"/><path fill="#010000" transform="scale(0.62029 0.620723)" d="M993.686 127.148C1016.59 150.771 1027.89 187.272 1026.85 219.595C1025.23 270.486 1006.03 320.192 983.287 365.111C979.644 372.307 970.635 390.982 966.033 396.418L966.261 393.177C971.835 380.544 979.517 367.387 985.568 354.779C1013.89 295.765 1041.15 221.74 1011.78 158.147C1007.28 148.402 999.596 138.857 993.679 129.818L993.686 127.148Z"/><path fill="#A24123" transform="scale(0.62029 0.620723)" d="M934.412 330.992C936.649 335.622 945.436 340.284 945.942 345.788C946.464 351.474 944.931 359.03 944.03 364.782C938.674 358.916 932.912 352.618 926.538 347.895C930.368 342.788 932.319 336.941 934.412 330.992Z"/><path fill="#010000" transform="scale(0.62029 0.620723)" d="M181.535 758.233L182.223 758.416C186.2 759.503 190.098 760.877 193.992 762.229C210.895 768.094 228.187 772.944 245.579 777.122C303.076 790.544 361.768 798.207 420.782 799.996C437.849 800.505 455.611 799.826 472.747 799.928C474.868 800.005 481.054 799.812 482.209 800.81C479.376 803.297 464.734 810.706 460.258 813.208C431.98 829.047 402.936 843.476 373.232 856.443C356.285 863.701 339.254 869.76 322.345 876.675C278.926 857.477 245.998 828.666 212.48 796.129L211.108 794.637C199.539 781.527 191.826 772.34 181.535 758.233Z"/><path fill="#4752C7" transform="scale(0.62029 0.620723)" d="M610.212 132.412C613.146 133.827 611.674 133.613 614.75 133.295L614.726 133.898C606.929 137.511 580.962 159.505 573.181 165.899C542.716 190.93 513.038 217.371 484.064 244.123C469.795 257.296 453.09 271.642 439.503 285.265L439.848 289.634C429.378 292.298 413.075 312.555 404.85 321.352C343.459 387.004 290.545 455.452 244.581 532.836C216.199 580.024 192.186 629.707 172.842 681.266C168.644 692.376 161.049 711.949 158.976 723.284C157.509 726.622 152.095 739.581 152.384 742.772C152.003 744.305 151.628 745.249 151.628 746.765L151.05 746.728C148.097 760.756 144.404 774.81 141.763 788.867C135.666 821.313 134.237 851.039 135.467 883.84L132.738 886.334C129.884 832.77 135.667 795.883 148.629 744.58L149.264 741.763C150.439 734.566 155.489 721.16 155.555 716.631C192.663 595.391 270.158 471.638 350.938 374.921C365.21 358.027 379.839 341.438 394.816 325.166C404.055 315.216 415.308 304.097 423.792 293.821C425.806 291.627 426.098 291.048 427.61 288.431C432.983 286.844 468.745 251.542 475.149 245.645C517.407 206.18 561.385 168.598 606.952 133.008L610.212 132.412Z"/><path fill="#17868F" transform="scale(0.62029 0.620723)" d="M439.503 285.265C478.175 276.11 510.536 268.465 550.654 263.156C649.709 250.049 775.233 256.951 865.641 303.792C868.809 307.051 869.897 307.301 874.009 309.214C871.409 310.599 871.952 309.641 871.312 311.667L870.234 311.03C848.916 298.614 814.892 286.736 791.304 280.369C675.924 249.227 554.189 259.454 439.848 289.634L439.503 285.265Z"/><path fill="#17868F" transform="scale(0.62029 0.620723)" d="M176.011 751.379C254.333 782.107 359.322 795.467 443.095 796.046C455.914 796.135 477.891 796.001 490.705 794.906L490.98 796.104C486.96 799.268 477.999 799.415 472.747 799.928C455.611 799.826 437.849 800.505 420.782 799.996C361.768 798.207 303.076 790.544 245.579 777.122C228.187 772.944 210.895 768.094 193.992 762.229C190.098 760.877 186.2 759.503 182.223 758.416L181.535 758.233C179.132 756.185 179.194 756.22 176.301 754.967L176.011 751.379Z"/><path fill="#4752C7" transform="scale(0.62029 0.620723)" d="M832.103 496.511C854.743 460.501 878.667 425.745 898.411 387.941C899.976 384.945 901.969 381.663 903.86 378.888C906.68 379.333 906.318 380.326 908.392 381.755C904.356 386.657 895.001 403.693 891.577 409.635C883.082 424.707 874.084 439.488 864.594 453.954C859.81 461.069 837.53 495.216 832.103 496.511Z"/><path fill="#EC633A" transform="scale(0.62029 0.620723)" d="M63.2092 648.3L65.6483 649.282C62.8239 654.778 53.8926 673.128 51.0439 677.315C61.5922 687.933 80.601 706.157 93.8835 712.117C94.5349 712.881 94.9008 713.434 95.6779 714.038L96.2695 714.339L93.9916 715.949L94.293 717.697C74.1669 777.464 61.3165 855.771 132.069 887.427L132.738 886.334L135.467 883.84C136.103 887.463 135.621 888.592 137.689 890.732L137.956 893.557C139.915 916.356 147.32 936.491 158.7 956.177C185.197 942.382 187.73 963.134 201.316 963.233L200.316 964.581L198.107 965.206C198.488 976.034 203.65 978.475 197.806 993.067L196.057 995.519C193.982 999.495 186.713 1005.02 182.499 1006.14C158.244 1012.58 137.424 989.513 149.511 966.368C106.039 961.728 79.5418 950.248 46.7636 922.034C46.101 920.683 40.968 915.348 39.6186 913.877C28.8204 914.889 25.5655 913.879 16.3262 909.167C15.8103 908.751 15.3025 908.322 14.806 907.882C2.2554 896.69 4.20288 878.118 15.288 866.51C0.731903 815.354 15.9699 755.478 35.3738 707.276C38.3917 699.777 43.4523 686.257 47.8099 679.802L49.2754 676.303C51.0052 670.352 59.9252 654.212 63.2092 648.3Z"/><path fill="#191516" transform="scale(0.62029 0.620723)" d="M63.2092 648.3L65.6483 649.282C62.8239 654.778 53.8926 673.128 51.0439 677.315C50.2878 679.136 49.6703 680.447 49.14 682.36C44.0343 695.196 37.7211 708.553 32.9798 721.364C17.2629 763.822 4.29315 820.589 17.645 864.641C20.0148 863.618 22.7023 862.363 25.1108 861.571C38.7029 857.899 49.6268 862.835 57.4989 874.146C60.3557 881.898 60.8699 883.78 60.5378 892.18C57.1394 903.362 54.0683 907.287 43.4587 913.439C46.496 916.83 52.2659 923.468 55.8803 926.103C76.9479 944.152 100.54 954.897 127.613 960.509C137.402 962.536 147.716 966.697 155.242 958.963L158.7 956.177C185.197 942.382 187.73 963.134 201.316 963.233L200.316 964.581L198.107 965.206C198.488 976.034 203.65 978.475 197.806 993.067L196.057 995.519C193.982 999.495 186.713 1005.02 182.499 1006.14C158.244 1012.58 137.424 989.513 149.511 966.368C106.039 961.728 79.5418 950.248 46.7636 922.034C46.101 920.683 40.968 915.348 39.6186 913.877C28.8204 914.889 25.5655 913.879 16.3262 909.167C15.8103 908.751 15.3025 908.322 14.806 907.882C2.2554 896.69 4.20288 878.118 15.288 866.51C0.731903 815.354 15.9699 755.478 35.3738 707.276C38.3917 699.777 43.4523 686.257 47.8099 679.802L49.2754 676.303C51.0052 670.352 59.9252 654.212 63.2092 648.3Z"/><path fill="#4752C7" transform="scale(0.62029 0.620723)" d="M25.1108 861.571C38.7029 857.899 49.6268 862.835 57.4989 874.146C60.3557 881.898 60.8699 883.78 60.5378 892.18L58.9692 893.091L58.0342 892.514L57.8456 886.913C55.7562 903.824 42.9525 915.75 25.6429 909.885C19.1588 907.65 13.8871 902.836 11.0722 896.581C4.44147 881.958 12.3055 869.878 26.2442 864.48L25.1108 861.571Z"/><path fill="#1D1515" transform="scale(0.62029 0.620723)" d="M25.1108 861.571C38.7029 857.899 49.6268 862.835 57.4989 874.146C60.3557 881.898 60.8699 883.78 60.5378 892.18L58.9692 893.091L58.0342 892.514L57.8456 886.913C54.186 869.186 44.1068 862.381 26.2442 864.48L25.1108 861.571Z"/><path fill="#4752C7" transform="scale(0.62029 0.620723)" d="M169.271 956.045C182.582 953.623 195.322 962.504 197.656 975.833C199.992 989.165 191.03 1001.85 177.688 1004.1C164.468 1006.33 151.931 997.462 149.617 984.255C147.304 971.046 156.082 958.447 169.271 956.045Z"/><path fill="#A24123" transform="scale(0.62029 0.620723)" d="M57.4989 874.146C62.553 875.138 67.8667 882.472 69.3289 887.244C74.146 902.979 69.2419 916.864 55.8803 926.103C52.2659 923.468 46.496 916.83 43.4587 913.439C54.0683 907.287 57.1394 903.362 60.5378 892.18C60.8699 883.78 60.3557 881.898 57.4989 874.146Z"/><path fill="#191516" transform="scale(0.62029 0.620723)" d="M92.2714 717.016L93.9916 715.949L94.293 717.697C74.1669 777.464 61.3165 855.771 132.069 887.427L133.439 891.682C113.278 882.825 95.9471 867.32 86.3629 847.411C66.1755 805.475 78.2489 758.515 92.2714 717.016Z"/><path fill="#4752C7" transform="scale(0.62029 0.620723)" d="M135.467 883.84C136.103 887.463 135.621 888.592 137.689 890.732L137.956 893.557C139.915 916.356 147.32 936.491 158.7 956.177L155.242 958.963C143.386 940.743 134.261 913.453 133.439 891.682L132.069 887.427L132.738 886.334L135.467 883.84Z"/><path fill="#17868F" transform="scale(0.62029 0.620723)" d="M51.0439 677.315C61.5922 687.933 80.601 706.157 93.8835 712.117C94.5349 712.881 94.9008 713.434 95.6779 714.038L96.2695 714.339L93.9916 715.949L92.2714 717.016C75.023 707.037 62.9109 696.288 49.14 682.36C49.6703 680.447 50.2878 679.136 51.0439 677.315Z"/><path fill="#4752C7" transform="scale(0.62029 0.620723)" d="M610.212 132.412C631.515 114.86 663.666 94.1574 687.569 80.2826C746.69 45.9649 818.634 11.9074 888.736 15.8479C918.164 17.5025 947.382 27.4974 967.274 50.1076C984.148 69.2911 993.903 97.9551 992.322 123.437L989.117 122.975L988.909 121.722C989.939 56.5258 940.496 17.288 878.936 18.1185C790.768 19.307 680.239 79.0474 614.75 133.295C611.674 133.613 613.146 133.827 610.212 132.412Z"/><path fill="#4752C7" transform="scale(0.62029 0.620723)" d="M484.656 924.246L487.967 921.853L490.403 924.314C421.83 971.317 323.083 1027.27 237.055 1010.79C225.59 1008.59 205.367 1002.66 196.057 995.519L197.806 993.067C213.845 1001.05 226.602 1006.67 244.75 1009.27C306.205 1018.08 369.668 991.113 422.727 962.631C442.137 952.212 466.987 937.325 484.656 924.246Z"/><defs><linearGradient id="gradient_0" gradientUnits="userSpaceOnUse" x1="220.414" y1="435.422" x2="225.58501" y2="445.45599"><stop offset="0" stop-color="#B1B0B0" stop-opacity="0.45882353"/><stop offset="1" stop-color="#B5B5B5" stop-opacity="0.55686277"/></linearGradient></defs><path fill="url(#gradient_0)" transform="scale(0.62029 0.620723)" d="M32.0624 557.701C48.7804 561.919 60.5701 556.296 67.2363 540.572C69.2112 540.84 69.1677 540.714 70.7895 541.817C84.999 563.872 40.4908 592.865 28.1739 569.22C29.2911 564.812 30.4471 561.889 32.0624 557.701Z"/><path fill="#289DA0" transform="scale(0.62029 0.620723)" d="M980.002 577.531L983.581 578.608C963.661 624.701 938.421 652.673 896.528 679.762L894.935 677.633L898.109 674.789C932.732 653.984 965.167 614.785 980.002 577.531Z"/><defs><linearGradient id="gradient_1" gradientUnits="userSpaceOnUse" x1="791.70697" y1="438.80099" x2="801.46301" y2="437.67999"><stop offset="0" stop-color="#C5C3C4" stop-opacity="0.71372551"/><stop offset="1" stop-color="#BDBDBC" stop-opacity="0.75686276"/></linearGradient></defs><path fill="url(#gradient_1)" transform="scale(0.62029 0.620723)" d="M967.54 533.154C970.247 544.026 976.291 553.479 988.43 555.122C987.021 559.196 983.802 569.307 982.083 572.751C978.064 571.872 970.851 567.304 968.267 564.184C959.827 553.99 966.9 543.313 967.54 533.154Z"/><path fill="#B7B3B2" fill-opacity="0.7019608" transform="scale(0.62029 0.620723)" d="M991.725 556.35L995.485 555.771C1003.29 554.63 1006.03 552.721 1012.32 548.386C1021.26 552.881 1008.53 579.176 985.986 573.356C988.227 568.025 989.986 561.916 991.725 556.35Z"/><path fill="#4752C7" transform="scale(0.62029 0.620723)" d="M28.4399 556.388L32.0624 557.701C30.4471 561.889 29.2911 564.812 28.1739 569.22C15.8926 610.809 22.4218 642.338 49.2754 676.303L47.8099 679.802C17.4999 647.729 12.4974 596.348 28.4399 556.388Z"/><path fill="#B7B3B2" fill-opacity="0.5411765" transform="scale(0.62029 0.620723)" d="M16.3262 909.167C25.5655 913.879 28.8204 914.889 39.6186 913.877C40.968 915.348 46.101 920.683 46.7636 922.034C40.7987 932.316 21.3658 925.582 16.2924 917.267C14.7931 914.81 15.6234 911.707 16.3262 909.167Z"/><path fill="#289DA0" transform="scale(0.62029 0.620723)" d="M96.2695 714.339C106.781 720.725 117.579 726.626 128.632 732.02C134.294 734.784 144.279 739.03 149.264 741.763L148.629 744.58C137.837 742.069 104.005 724.32 94.293 717.697L93.9916 715.949L96.2695 714.339Z"/><path fill="#010000" fill-opacity="0.96862745" transform="scale(0.62029 0.620723)" d="M211.108 794.637L212.48 796.129C201.129 806.367 181.206 829.871 169.656 837.484C169.825 837.226 169.995 836.968 170.164 836.708L171.041 835.436C176.272 827.731 203.31 801.545 211.108 794.637Z"/><path fill="#010000" fill-opacity="0.95686275" transform="scale(0.62029 0.620723)" d="M818.442 799.565L819.952 798.275C825.54 802.879 856.84 833.023 858.533 837.369C853.751 834.694 822.435 804.646 818.442 799.565Z"/><path fill="#010000" fill-opacity="0.91764706" transform="scale(0.62029 0.620723)" d="M215.28 256.525C207.342 249.72 180.932 224.16 176.416 215.889C178.122 216.533 212.596 251.142 216.629 255.129L215.28 256.525Z"/><path fill="#010000" fill-opacity="0.90980393" transform="scale(0.62029 0.620723)" d="M518.243 122.588C517.144 115.636 516.604 83.3175 518.803 77.4718L519.299 77.8669C520.173 93.3979 519.646 107.874 519.939 123.21L518.243 122.588Z"/><path fill="#289DA0" transform="scale(0.62029 0.620723)" d="M152.384 742.772C157.504 744.861 171.276 750.665 176.011 751.379L176.301 754.967C167.638 752.913 159.961 749.844 151.628 746.765C151.628 745.249 152.003 744.305 152.384 742.772Z"/><path fill="#17868F" transform="scale(0.62029 0.620723)" d="M988.43 555.122L991.725 556.35C989.986 561.916 988.227 568.025 985.986 573.356C985.219 574.985 984.208 576.962 983.581 578.608L980.002 577.531L982.083 572.751C983.802 569.307 987.021 559.196 988.43 555.122Z"/></g></svg>